<?xml version="1.0" encoding="UTF-8"?>
<svg id="Calque_2" data-name="Calque 2" xmlns="http://www.w3.org/2000/svg" xmlns:xlink="http://www.w3.org/1999/xlink" viewBox="0 0 170.83 170.83">
  <defs>
    <style>
      .cls-1 {
        fill: none;
        stroke: #fff;
        stroke-miterlimit: 10;
        stroke-width: .75px;
      }

      .cls-2 {
        fill: #fff;
        stroke-width: 0px;
      }

      .cls-3 {
        clip-path: url(#clippath);
      }
    </style>
    <clipPath id="clippath">
      <path class="cls-1" d="M170.45,94.79v-18.75s-11.71,0-11.71,0c-.87-6.71-2.61-13.14-5.15-19.16l10.15-5.86-9.38-16.24-10.2,5.89c-4.03-5.27-8.74-9.97-14.01-13.99l5.9-10.22-16.24-9.38-5.89,10.2c-6.01-2.52-12.44-4.25-19.14-5.11V.38h-18.75v11.77c-6.71.84-13.14,2.56-19.17,5.07l-5.85-10.14-16.24,9.38,5.84,10.12c-5.3,4.02-10.04,8.74-14.09,14.02l-10.07-5.82-9.38,16.24,10,5.77c-2.56,6.05-4.31,12.51-5.18,19.25H.38v18.75h11.48c.84,6.77,2.57,13.25,5.11,19.32l-9.88,5.7,9.38,16.24,9.87-5.7c4.05,5.33,8.81,10.1,14.14,14.16l-5.69,9.86,16.24,9.38,5.68-9.83c6.08,2.55,12.57,4.3,19.35,5.14v11.39h18.75v-11.42c6.76-.86,13.25-2.62,19.31-5.18l5.71,9.89,16.24-9.38-5.75-9.96c5.3-4.06,10.04-8.81,14.07-14.14l10,5.77,9.38-16.24-10.03-5.79c2.52-6.05,4.24-12.5,5.07-19.23h11.67Z"/>
    </clipPath>
  </defs>
  <g id="Calque_1-2" data-name="Calque 1">
    <g>
      <g class="cls-3">
        <path class="cls-1" d="M88.48,62.19h6.55v29.88h-6.55v-2.05c-1.39,1.75-3.28,2.63-5.65,2.63-1.34,0-2.58-.25-3.71-.76-1.13-.5-2.11-1.2-2.95-2.09-.84-.89-1.49-1.93-1.96-3.13-.47-1.2-.7-2.5-.7-3.89,0-1.32.22-2.57.67-3.76.44-1.19,1.07-2.23,1.89-3.11.82-.89,1.79-1.59,2.93-2.11,1.14-.52,2.39-.77,3.76-.77,2.3,0,4.21.8,5.72,2.41v-13.25ZM80.27,82.78c0,.6.11,1.16.32,1.67.22.52.51.97.88,1.35.37.38.82.68,1.33.9.52.22,1.07.32,1.67.32s1.12-.11,1.64-.32c.52-.22.96-.52,1.33-.9.37-.38.67-.83.9-1.33.23-.5.34-1.04.34-1.62s-.11-1.12-.34-1.64c-.23-.52-.53-.97-.9-1.35-.37-.38-.82-.68-1.33-.9-.52-.22-1.06-.32-1.64-.32s-1.12.11-1.64.32c-.52.22-.96.52-1.33.9-.37.38-.67.82-.9,1.31-.23.49-.34,1.03-.34,1.6Z"/>
        <path class="cls-2" d="M21.79,47.91l17.72,12.05-4.64,6.82-9.85-6.7-.75-.51-.36.83c-2.27,5.26-3.86,12.19-4.36,19.01l-.06.8h4.93v8.25h-4.93l.06.8c.53,7.73,2.28,15.26,4.8,20.68l.48,1.03.76-.85,7.04-7.9,6.16,5.49-14.28,16.01-3.09-3.26c-6.07-6.4-10.31-21.26-10.31-36.14,0-12.64,3.28-25.61,8.35-33.04l2.32-3.4M21.59,46.87l-2.74,4.01c-5.15,7.54-8.48,20.68-8.48,33.46,0,15.05,4.32,30.12,10.51,36.65l3.65,3.85,15.32-17.18-7.28-6.49-7.54,8.46c-2.27-4.87-4.17-12.24-4.74-20.42h4.88v-9.75h-4.87c.55-7.5,2.3-14.12,4.3-18.77l10.47,7.12,5.48-8.06-18.96-12.89h0Z"/>
        <path class="cls-2" d="M146.87,45.81l2.13,2.73c.43.55,10.59,13.8,10.59,32.18s-5.47,33.79-5.7,34.47l-1.48,4.3-23.49-10.71v-53.46l17.95-9.51M147.38,108.14l.23-.86c1.7-6.46,3.73-16.31,3.73-26.55s-4.14-19.34-6.6-23.62l-.36-.63-.64.34-6.17,3.27-.4.21v43.19l.44.2,8.97,4.09.81.37M147.07,44.86l-18.91,10.02v54.39l24.68,11.25,1.75-5.08c.23-.68,5.74-16.92,5.74-34.71s-10.31-32.08-10.74-32.64l-2.51-3.22h0ZM146.88,107.08l-8.97-4.09v-42.25l6.17-3.27c2.58,4.48,6.5,12.99,6.5,23.25s-2.16,20.5-3.7,26.36h0Z"/>
      </g>
      <path class="cls-1" d="M170.45,94.79v-18.75s-11.71,0-11.71,0c-.87-6.71-2.61-13.14-5.15-19.16l10.15-5.86-9.38-16.24-10.2,5.89c-4.03-5.27-8.74-9.97-14.01-13.99l5.9-10.22-16.24-9.38-5.89,10.2c-6.01-2.52-12.44-4.25-19.14-5.11V.38h-18.75v11.77c-6.71.84-13.14,2.56-19.17,5.07l-5.85-10.14-16.24,9.38,5.84,10.12c-5.3,4.02-10.04,8.74-14.09,14.02l-10.07-5.82-9.38,16.24,10,5.77c-2.56,6.05-4.31,12.51-5.18,19.25H.38v18.75h11.48c.84,6.77,2.57,13.25,5.11,19.32l-9.88,5.7,9.38,16.24,9.87-5.7c4.05,5.33,8.81,10.1,14.14,14.16l-5.69,9.86,16.24,9.38,5.68-9.83c6.08,2.55,12.57,4.3,19.35,5.14v11.39h18.75v-11.42c6.76-.86,13.25-2.62,19.31-5.18l5.71,9.89,16.24-9.38-5.75-9.96c5.3-4.06,10.04-8.81,14.07-14.14l10,5.77,9.38-16.24-10.03-5.79c2.52-6.05,4.24-12.5,5.07-19.23h11.67Z"/>
    </g>
    <g>
      <path class="cls-1" d="M71.42,87.06c-.5-1.44-.79-2.98-.79-4.59,0-2.17.51-4.22,1.39-6.06h-13.36l55.25-59.13c-6.01-2.52-12.43-4.25-19.12-5.11L29.91,87.29l41.52-.23Z"/>
      <path class="cls-1" d="M98.69,82.47c0,1.56-.26,3.05-.73,4.45l7.09-.04-33.16,66.56,52.71-68.02v-9.01h-27.3c.88,1.84,1.39,3.89,1.39,6.06Z"/>
    </g>
  </g>
</svg>