<?xml version="1.0" encoding="UTF-8"?>
<svg id="Calque_2" data-name="Calque 2" xmlns="http://www.w3.org/2000/svg" xmlns:xlink="http://www.w3.org/1999/xlink" viewBox="0 0 441.47 242">
  <defs>
    <style>
      .cls-1, .cls-2, .cls-3, .cls-4, .cls-5 {
        stroke-width: 0px;
      }

      .cls-1, .cls-6 {
        fill: url(#Dégradé_sans_nom_4);
      }

      .cls-2 {
        fill: url(#Dégradé_sans_nom_23);
      }

      .cls-3 {
        fill: #fff;
      }

      .cls-7 {
        clip-path: url(#clippath);
      }

      .cls-4 {
        fill: url(#Dégradé_sans_nom_29);
      }

      .cls-5 {
        fill: #1d1d1b;
      }
    </style>
    <radialGradient id="Dégradé_sans_nom_4" data-name="Dégradé sans nom 4" cx="220.18" cy="85.04" fx="220.18" fy="85.04" r="85.04" gradientUnits="userSpaceOnUse">
      <stop offset="0" stop-color="#b7bee1"/>
      <stop offset=".9" stop-color="#01498e"/>
    </radialGradient>
    <clipPath id="clippath">
      <path class="cls-1" d="M305.21,94.41v-18.75s-11.71,0-11.71,0c-.87-6.71-2.61-13.14-5.15-19.16l10.15-5.86-9.38-16.24-10.2,5.89c-4.03-5.27-8.74-9.97-14.01-13.99l5.9-10.22-16.24-9.38-5.89,10.2c-6.01-2.52-12.44-4.25-19.14-5.11V0h-18.75v11.77c-6.71.84-13.14,2.56-19.17,5.07l-5.85-10.14-16.24,9.38,5.84,10.12c-5.3,4.02-10.04,8.74-14.09,14.02l-10.07-5.82-9.38,16.24,10,5.77c-2.56,6.05-4.31,12.51-5.18,19.25h-11.53v18.75h11.48c.84,6.77,2.57,13.25,5.11,19.32l-9.88,5.7,9.38,16.24,9.87-5.7c4.05,5.33,8.81,10.1,14.14,14.16l-5.69,9.86,16.24,9.38,5.68-9.83c6.08,2.55,12.57,4.3,19.35,5.14v11.39h18.75v-11.42c6.76-.86,13.25-2.62,19.31-5.18l5.71,9.89,16.24-9.38-5.75-9.96c5.3-4.06,10.04-8.81,14.07-14.14l10,5.77,9.38-16.24-10.03-5.79c2.52-6.05,4.24-12.5,5.07-19.23h11.67Z"/>
    </clipPath>
    <radialGradient id="Dégradé_sans_nom_23" data-name="Dégradé sans nom 23" cx="239.34" cy="87.32" fx="239.34" fy="87.32" r="72.99" gradientUnits="userSpaceOnUse">
      <stop offset="0" stop-color="#f08262"/>
      <stop offset=".8" stop-color="#e10613"/>
    </radialGradient>
    <radialGradient id="Dégradé_sans_nom_29" data-name="Dégradé sans nom 29" cx="239.34" cy="87.32" fx="239.34" fy="87.32" r="72.99" gradientUnits="userSpaceOnUse">
      <stop offset="0" stop-color="#f08262"/>
      <stop offset=".6" stop-color="#d8282f"/>
    </radialGradient>
  </defs>
  <g id="Calque_1-2" data-name="Calque 1">
    <g>
      <path class="cls-6" d="M305.21,94.41v-18.75s-11.71,0-11.71,0c-.87-6.71-2.61-13.14-5.15-19.16l10.15-5.86-9.38-16.24-10.2,5.89c-4.03-5.27-8.74-9.97-14.01-13.99l5.9-10.22-16.24-9.38-5.89,10.2c-6.01-2.52-12.44-4.25-19.14-5.11V0h-18.75v11.77c-6.71.84-13.14,2.56-19.17,5.07l-5.85-10.14-16.24,9.38,5.84,10.12c-5.3,4.02-10.04,8.74-14.09,14.02l-10.07-5.82-9.38,16.24,10,5.77c-2.56,6.05-4.31,12.51-5.18,19.25h-11.53v18.75h11.48c.84,6.77,2.57,13.25,5.11,19.32l-9.88,5.7,9.38,16.24,9.87-5.7c4.05,5.33,8.81,10.1,14.14,14.16l-5.69,9.86,16.24,9.38,5.68-9.83c6.08,2.55,12.57,4.3,19.35,5.14v11.39h18.75v-11.42c6.76-.86,13.25-2.62,19.31-5.18l5.71,9.89,16.24-9.38-5.75-9.96c5.3-4.06,10.04-8.81,14.07-14.14l10,5.77,9.38-16.24-10.03-5.79c2.52-6.05,4.24-12.5,5.07-19.23h11.67Z"/>
      <g class="cls-7">
        <path class="cls-3" d="M223.24,61.81h6.55v29.88h-6.55v-2.05c-1.39,1.75-3.28,2.63-5.65,2.63-1.34,0-2.58-.25-3.71-.76-1.13-.5-2.11-1.2-2.95-2.09-.84-.89-1.49-1.93-1.96-3.13-.47-1.2-.7-2.5-.7-3.89,0-1.32.22-2.57.67-3.76.44-1.19,1.07-2.23,1.89-3.11.82-.89,1.79-1.59,2.93-2.11,1.14-.52,2.39-.77,3.76-.77,2.3,0,4.21.8,5.72,2.41v-13.25ZM215.03,82.4c0,.6.11,1.16.32,1.67.22.52.51.97.88,1.35.37.38.82.68,1.33.9.52.22,1.07.32,1.67.32s1.12-.11,1.64-.32c.52-.22.96-.52,1.33-.9.37-.38.67-.83.9-1.33.23-.5.34-1.04.34-1.62s-.11-1.12-.34-1.64c-.23-.52-.53-.97-.9-1.35-.37-.38-.82-.68-1.33-.9-.52-.22-1.06-.32-1.64-.32s-1.12.11-1.64.32c-.52.22-.96.52-1.33.9-.37.38-.67.82-.9,1.31-.23.49-.34,1.03-.34,1.6Z"/>
        <path class="cls-3" d="M159.78,109.26c-2.27-4.87-4.17-12.24-4.74-20.42h4.88v-9.75h-4.87c.55-7.5,2.3-14.12,4.3-18.77l10.47,7.12,5.48-8.06-18.96-12.89-2.74,4.01c-5.15,7.54-8.48,20.68-8.48,33.46,0,15.05,4.32,30.12,10.51,36.65l3.65,3.85,15.32-17.18-7.28-6.49-7.54,8.46Z"/>
        <path class="cls-3" d="M284.35,47.71l-2.51-3.22-18.91,10.02v54.39l24.68,11.25,1.75-5.08c.23-.68,5.74-16.92,5.74-34.71s-10.31-32.08-10.74-32.64ZM281.64,106.71l-8.97-4.09v-42.25l6.17-3.27c2.58,4.48,6.5,12.99,6.5,23.25s-2.16,20.5-3.7,26.36Z"/>
      </g>
    </g>
    <g>
      <path class="cls-5" d="M17.16,208.24H7.84v5.04h8.8v6.64H7.84v5.2h9.32v6.64H0v-30.16h17.16v6.64ZM15.68,193.92l-7.68,5.28-3.04-2.84,6.52-6.24,4.2,3.8Z"/>
      <path class="cls-5" d="M29.36,198.56v33.2h-7.24v-33.2h7.24Z"/>
      <path class="cls-5" d="M40.84,222.72c0,3.12,1.47,4.68,4.4,4.68,1.57,0,2.76-.64,3.56-1.92h7c-1.41,4.69-4.95,7.04-10.6,7.04-1.73,0-3.32-.26-4.76-.78s-2.67-1.26-3.7-2.22c-1.03-.96-1.82-2.11-2.38-3.44-.56-1.33-.84-2.83-.84-4.48s.27-3.25.8-4.62c.53-1.37,1.29-2.54,2.28-3.5.99-.96,2.18-1.7,3.58-2.22,1.4-.52,2.98-.78,4.74-.78s3.29.26,4.68.78,2.56,1.27,3.52,2.26c.96.99,1.69,2.19,2.2,3.62.51,1.43.76,3.03.76,4.82v.76h-15.24ZM49.32,218.52c-.24-1.01-.73-1.83-1.48-2.44-.75-.61-1.65-.92-2.72-.92-1.12,0-2.03.29-2.74.88-.71.59-1.15,1.41-1.34,2.48h8.28Z"/>
      <path class="cls-5" d="M75.68,217.88c-1.25-.85-2.52-1.28-3.8-1.28-.69,0-1.34.12-1.94.36-.6.24-1.13.58-1.58,1.02-.45.44-.81.96-1.06,1.56-.25.6-.38,1.27-.38,2.02s.13,1.38.38,1.98c.25.6.6,1.12,1.04,1.56s.97.78,1.58,1.02c.61.24,1.27.36,1.96.36,1.36,0,2.63-.47,3.8-1.4v6.16c-1.79.77-3.48,1.16-5.08,1.16-1.49,0-2.91-.25-4.26-.76-1.35-.51-2.53-1.23-3.56-2.18-1.03-.95-1.85-2.08-2.46-3.4-.61-1.32-.92-2.79-.92-4.42s.29-3.11.88-4.46c.59-1.35,1.39-2.51,2.4-3.48,1.01-.97,2.22-1.73,3.62-2.28,1.4-.55,2.9-.82,4.5-.82,1.76,0,3.39.37,4.88,1.12v6.16Z"/>
      <path class="cls-5" d="M87.88,217.28v14.48h-7.24v-14.48h-2.4v-6.04h2.4v-6.16h7.24v6.16h4.12v6.04h-4.12Z"/>
      <path class="cls-5" d="M94.72,211.24h7.24v3.36c.77-1.23,1.72-2.17,2.84-2.82,1.12-.65,2.43-.98,3.92-.98h.62c.23,0,.49.03.78.08v6.92c-.96-.48-2-.72-3.12-.72-1.68,0-2.94.5-3.78,1.5s-1.26,2.46-1.26,4.38v8.8h-7.24v-20.52Z"/>
      <path class="cls-5" d="M112.88,203.36c0-.56.11-1.09.32-1.58.21-.49.51-.93.88-1.3.37-.37.81-.67,1.3-.88.49-.21,1.02-.32,1.58-.32s1.09.11,1.58.32c.49.21.93.51,1.3.88.37.37.67.81.88,1.3.21.49.32,1.02.32,1.58s-.11,1.09-.32,1.58c-.21.49-.51.93-.88,1.3s-.81.67-1.3.88c-.49.21-1.02.32-1.58.32s-1.09-.11-1.58-.32c-.49-.21-.93-.51-1.3-.88-.37-.37-.67-.81-.88-1.3-.21-.49-.32-1.02-.32-1.58ZM120.6,211.24v20.52h-7.24v-20.52h7.24Z"/>
      <path class="cls-5" d="M141.04,217.88c-1.25-.85-2.52-1.28-3.8-1.28-.69,0-1.34.12-1.94.36-.6.24-1.13.58-1.58,1.02-.45.44-.81.96-1.06,1.56-.25.6-.38,1.27-.38,2.02s.13,1.38.38,1.98c.25.6.6,1.12,1.04,1.56s.97.78,1.58,1.02c.61.24,1.27.36,1.96.36,1.36,0,2.63-.47,3.8-1.4v6.16c-1.79.77-3.48,1.16-5.08,1.16-1.49,0-2.91-.25-4.26-.76-1.35-.51-2.53-1.23-3.56-2.18-1.03-.95-1.85-2.08-2.46-3.4-.61-1.32-.92-2.79-.92-4.42s.29-3.11.88-4.46c.59-1.35,1.39-2.51,2.4-3.48,1.01-.97,2.22-1.73,3.62-2.28,1.4-.55,2.9-.82,4.5-.82,1.76,0,3.39.37,4.88,1.12v6.16Z"/>
      <path class="cls-5" d="M144.68,203.36c0-.56.11-1.09.32-1.58.21-.49.51-.93.88-1.3.37-.37.81-.67,1.3-.88.49-.21,1.02-.32,1.58-.32s1.09.11,1.58.32c.49.21.93.51,1.3.88.37.37.67.81.88,1.3.21.49.32,1.02.32,1.58s-.11,1.09-.32,1.58c-.21.49-.51.93-.88,1.3s-.81.67-1.3.88c-.49.21-1.02.32-1.58.32s-1.09-.11-1.58-.32c-.49-.21-.93-.51-1.3-.88-.37-.37-.67-.81-.88-1.3-.21-.49-.32-1.02-.32-1.58ZM152.4,211.24v20.52h-7.24v-20.52h7.24Z"/>
      <path class="cls-5" d="M165.44,217.28v14.48h-7.24v-14.48h-2.4v-6.04h2.4v-6.16h7.24v6.16h4.12v6.04h-4.12Z"/>
      <path class="cls-5" d="M179.2,222.72c0,3.12,1.47,4.68,4.4,4.68,1.57,0,2.76-.64,3.56-1.92h7c-1.41,4.69-4.95,7.04-10.6,7.04-1.73,0-3.32-.26-4.76-.78s-2.67-1.26-3.7-2.22c-1.03-.96-1.82-2.11-2.38-3.44-.56-1.33-.84-2.83-.84-4.48s.27-3.25.8-4.62c.53-1.37,1.29-2.54,2.28-3.5.99-.96,2.18-1.7,3.58-2.22,1.4-.52,2.98-.78,4.74-.78s3.29.26,4.68.78,2.56,1.27,3.52,2.26c.96.99,1.69,2.19,2.2,3.62.51,1.43.76,3.03.76,4.82v.76h-15.24ZM187.68,218.52c-.24-1.01-.73-1.83-1.48-2.44-.75-.61-1.65-.92-2.72-.92-1.12,0-2.03.29-2.74.88-.71.59-1.15,1.41-1.34,2.48h8.28ZM190.12,202.08l-6.96,6.16-3.36-2.48,5.72-7,4.6,3.32Z"/>
      <path class="cls-5" d="M227.99,198.56h7.28v33.2h-7.28v-2.28c-1.55,1.95-3.64,2.92-6.28,2.92-1.49,0-2.87-.28-4.12-.84-1.25-.56-2.35-1.33-3.28-2.32-.93-.99-1.66-2.15-2.18-3.48-.52-1.33-.78-2.77-.78-4.32,0-1.47.25-2.86.74-4.18.49-1.32,1.19-2.47,2.1-3.46.91-.99,1.99-1.77,3.26-2.34,1.27-.57,2.66-.86,4.18-.86,2.56,0,4.68.89,6.36,2.68v-14.72ZM218.87,221.44c0,.67.12,1.29.36,1.86.24.57.57,1.07.98,1.5.41.43.91.76,1.48,1,.57.24,1.19.36,1.86.36s1.25-.12,1.82-.36c.57-.24,1.07-.57,1.48-1,.41-.43.75-.92,1-1.48.25-.56.38-1.16.38-1.8s-.13-1.25-.38-1.82c-.25-.57-.59-1.07-1-1.5-.41-.43-.91-.76-1.48-1-.57-.24-1.18-.36-1.82-.36s-1.25.12-1.82.36c-.57.24-1.07.57-1.48,1-.41.43-.75.91-1,1.46-.25.55-.38,1.14-.38,1.78Z"/>
      <path class="cls-5" d="M246.71,222.72c0,3.12,1.47,4.68,4.4,4.68,1.57,0,2.76-.64,3.56-1.92h7c-1.41,4.69-4.95,7.04-10.6,7.04-1.73,0-3.32-.26-4.76-.78-1.44-.52-2.67-1.26-3.7-2.22-1.03-.96-1.82-2.11-2.38-3.44-.56-1.33-.84-2.83-.84-4.48s.27-3.25.8-4.62c.53-1.37,1.29-2.54,2.28-3.5.99-.96,2.18-1.7,3.58-2.22,1.4-.52,2.98-.78,4.74-.78s3.29.26,4.68.78,2.56,1.27,3.52,2.26c.96.99,1.69,2.19,2.2,3.62.51,1.43.76,3.03.76,4.82v.76h-15.24ZM255.19,218.52c-.24-1.01-.73-1.83-1.48-2.44-.75-.61-1.65-.92-2.72-.92-1.12,0-2.03.29-2.74.88-.71.59-1.15,1.41-1.34,2.48h8.28Z"/>
      <path class="cls-5" d="M280.35,201.6h11.6c2.05,0,3.98.41,5.78,1.24,1.8.83,3.37,1.93,4.72,3.3,1.35,1.37,2.41,2.97,3.18,4.8.77,1.83,1.16,3.74,1.16,5.74s-.38,3.87-1.14,5.7c-.76,1.83-1.81,3.43-3.16,4.82-1.35,1.39-2.92,2.49-4.72,3.32-1.8.83-3.74,1.24-5.82,1.24h-11.6v-30.16ZM288.19,225.12h1.8c1.36,0,2.57-.21,3.64-.64,1.07-.43,1.97-1.01,2.7-1.76.73-.75,1.29-1.63,1.68-2.66.39-1.03.58-2.15.58-3.38s-.2-2.32-.6-3.36c-.4-1.04-.97-1.93-1.7-2.68-.73-.75-1.63-1.33-2.7-1.76-1.07-.43-2.27-.64-3.6-.64h-1.8v16.88Z"/>
      <path class="cls-5" d="M310.63,203.36c0-.56.11-1.09.32-1.58.21-.49.51-.93.88-1.3.37-.37.81-.67,1.3-.88.49-.21,1.02-.32,1.58-.32s1.09.11,1.58.32c.49.21.93.51,1.3.88.37.37.67.81.88,1.3.21.49.32,1.02.32,1.58s-.11,1.09-.32,1.58c-.21.49-.51.93-.88,1.3-.37.37-.81.67-1.3.88-.49.21-1.02.32-1.58.32s-1.09-.11-1.58-.32c-.49-.21-.93-.51-1.3-.88-.37-.37-.67-.81-.88-1.3-.21-.49-.32-1.02-.32-1.58ZM318.35,211.24v30.76h-7.24v-30.76h7.24Z"/>
      <path class="cls-5" d="M322.83,203.36c0-.56.11-1.09.32-1.58.21-.49.51-.93.88-1.3.37-.37.81-.67,1.3-.88.49-.21,1.02-.32,1.58-.32s1.09.11,1.58.32c.49.21.93.51,1.3.88.37.37.67.81.88,1.3.21.49.32,1.02.32,1.58s-.11,1.09-.32,1.58c-.21.49-.51.93-.88,1.3-.37.37-.81.67-1.3.88-.49.21-1.02.32-1.58.32s-1.09-.11-1.58-.32c-.49-.21-.93-.51-1.3-.88-.37-.37-.67-.81-.88-1.3-.21-.49-.32-1.02-.32-1.58ZM330.55,211.24v20.52h-7.24v-20.52h7.24Z"/>
      <path class="cls-5" d="M342.75,198.56v14.72c1.71-1.79,3.84-2.68,6.4-2.68,1.52,0,2.91.29,4.18.86,1.27.57,2.35,1.35,3.24,2.32.89.97,1.59,2.12,2.1,3.44s.76,2.73.76,4.22-.26,2.95-.78,4.28c-.52,1.33-1.25,2.49-2.18,3.48-.93.99-2.03,1.77-3.3,2.34-1.27.57-2.63.86-4.1.86-2.67,0-4.77-.97-6.32-2.92v2.28h-7.24v-33.2h7.24ZM351.87,221.56c0-.64-.12-1.25-.36-1.82-.24-.57-.57-1.07-1-1.5-.43-.43-.92-.77-1.48-1.02-.56-.25-1.17-.38-1.84-.38s-1.24.12-1.8.36c-.56.24-1.05.57-1.46,1-.41.43-.75.93-1,1.5-.25.57-.38,1.18-.38,1.82s.12,1.24.36,1.8.57,1.05,1,1.46c.43.41.93.75,1.5,1,.57.25,1.18.38,1.82.38s1.24-.12,1.8-.36c.56-.24,1.05-.57,1.46-1,.41-.43.75-.92,1-1.48.25-.56.38-1.15.38-1.76Z"/>
      <path class="cls-5" d="M362.75,221.32c0-1.52.31-2.94.92-4.26.61-1.32,1.47-2.47,2.56-3.44,1.09-.97,2.39-1.74,3.9-2.3s3.15-.84,4.94-.84,3.39.27,4.9.82c1.51.55,2.81,1.31,3.92,2.28,1.11.97,1.97,2.13,2.58,3.48.61,1.35.92,2.83.92,4.46s-.31,3.11-.94,4.46c-.63,1.35-1.49,2.51-2.58,3.48-1.09.97-2.41,1.73-3.94,2.26-1.53.53-3.19.8-4.98.8s-3.39-.27-4.88-.8c-1.49-.53-2.78-1.29-3.86-2.28-1.08-.99-1.93-2.17-2.54-3.54-.61-1.37-.92-2.9-.92-4.58ZM370.39,221.4c0,.69.13,1.33.38,1.9.25.57.59,1.07,1,1.5.41.43.91.76,1.48,1,.57.24,1.18.36,1.82.36s1.25-.12,1.82-.36c.57-.24,1.07-.57,1.48-1,.41-.43.75-.93,1-1.5.25-.57.38-1.19.38-1.86s-.13-1.25-.38-1.82c-.25-.57-.59-1.07-1-1.5-.41-.43-.91-.76-1.48-1-.57-.24-1.18-.36-1.82-.36s-1.25.12-1.82.36c-.57.24-1.07.57-1.48,1-.41.43-.75.92-1,1.48-.25.56-.38,1.16-.38,1.8Z"/>
      <path class="cls-5" d="M398.79,211.24v11.56c0,2.53,1.23,3.8,3.68,3.8s3.68-1.27,3.68-3.8v-11.56h7.24v12.96c0,2.77-.91,4.85-2.74,6.24-1.83,1.39-4.55,2.08-8.18,2.08s-6.35-.69-8.18-2.08-2.74-3.47-2.74-6.24v-12.96h7.24Z"/>
      <path class="cls-5" d="M426.39,217.28v14.48h-7.24v-14.48h-2.4v-6.04h2.4v-6.16h7.24v6.16h4.12v6.04h-4.12Z"/>
      <path class="cls-5" d="M433.31,203.36c0-.56.11-1.09.32-1.58.21-.49.51-.93.88-1.3.37-.37.81-.67,1.3-.88.49-.21,1.02-.32,1.58-.32s1.09.11,1.58.32c.49.21.93.51,1.3.88.37.37.67.81.88,1.3.21.49.32,1.02.32,1.58s-.11,1.09-.32,1.58c-.21.49-.51.93-.88,1.3-.37.37-.81.67-1.3.88-.49.21-1.02.32-1.58.32s-1.09-.11-1.58-.32c-.49-.21-.93-.51-1.3-.88-.37-.37-.67-.81-.88-1.3-.21-.49-.32-1.02-.32-1.58ZM441.03,211.24v20.52h-7.24v-20.52h7.24Z"/>
    </g>
    <g>
      <path class="cls-2" d="M206.19,86.69c-.5-1.44-.79-2.98-.79-4.59,0-2.17.51-4.22,1.39-6.06h-13.36l55.25-59.13c-6.01-2.52-12.43-4.25-19.12-5.11l-64.89,75.12,41.52-.23Z"/>
      <path class="cls-4" d="M233.45,82.09c0,1.56-.26,3.05-.73,4.45l7.09-.04-33.16,66.56,52.71-68.02v-9.01h-27.3c.88,1.84,1.39,3.89,1.39,6.06Z"/>
    </g>
  </g>
</svg>