<?xml version="1.0" encoding="UTF-8"?>
<svg id="Calque_2" data-name="Calque 2" xmlns="http://www.w3.org/2000/svg" xmlns:xlink="http://www.w3.org/1999/xlink" viewBox="0 0 170.08 170.08">
  <defs>
    <style>
      .cls-1 {
        fill: url(#Dégradé_sans_nom_19);
      }

      .cls-1, .cls-2, .cls-3, .cls-4 {
        stroke-width: 0px;
      }

      .cls-2, .cls-5 {
        fill: url(#Dégradé_sans_nom_33);
      }

      .cls-3 {
        fill: #fff;
      }

      .cls-4 {
        fill: url(#Dégradé_sans_nom_27);
      }

      .cls-6 {
        clip-path: url(#clippath);
      }
    </style>
    <radialGradient id="Dégradé_sans_nom_33" data-name="Dégradé sans nom 33" cx="85.04" cy="85.04" fx="85.04" fy="85.04" r="85.04" gradientUnits="userSpaceOnUse">
      <stop offset="0" stop-color="#b6bee4"/>
      <stop offset=".9" stop-color="#003da6"/>
    </radialGradient>
    <clipPath id="clippath">
      <path class="cls-2" d="M170.08,94.41v-18.75s-11.71,0-11.71,0c-.87-6.71-2.61-13.14-5.15-19.16l10.15-5.86-9.38-16.24-10.2,5.89c-4.03-5.27-8.74-9.97-14.01-13.99l5.9-10.22-16.24-9.38-5.89,10.2c-6.01-2.52-12.44-4.25-19.14-5.11V0h-18.75v11.77c-6.71.84-13.14,2.56-19.17,5.07l-5.85-10.14-16.24,9.38,5.84,10.12c-5.3,4.02-10.04,8.74-14.09,14.02l-10.07-5.82-9.38,16.24,10,5.77c-2.56,6.05-4.31,12.51-5.18,19.25H0v18.75h11.48c.84,6.77,2.57,13.25,5.11,19.32l-9.88,5.7,9.38,16.24,9.87-5.7c4.05,5.33,8.81,10.1,14.14,14.16l-5.69,9.86,16.24,9.38,5.68-9.83c6.08,2.55,12.57,4.3,19.35,5.14v11.39h18.75v-11.42c6.76-.86,13.25-2.62,19.31-5.18l5.71,9.89,16.24-9.38-5.75-9.96c5.3-4.06,10.04-8.81,14.07-14.14l10,5.77,9.38-16.24-10.03-5.79c2.52-6.05,4.24-12.5,5.07-19.23h11.67Z"/>
    </clipPath>
    <radialGradient id="Dégradé_sans_nom_19" data-name="Dégradé sans nom 19" cx="104.2" cy="87.32" fx="104.2" fy="87.32" r="72.99" gradientUnits="userSpaceOnUse">
      <stop offset="0" stop-color="#f2897b"/>
      <stop offset=".8" stop-color="#d7282f"/>
    </radialGradient>
    <radialGradient id="Dégradé_sans_nom_27" data-name="Dégradé sans nom 27" cx="104.2" cy="87.32" fx="104.2" fy="87.32" r="72.99" gradientUnits="userSpaceOnUse">
      <stop offset="0" stop-color="#f2897b"/>
      <stop offset=".6" stop-color="#d7282f"/>
    </radialGradient>
  </defs>
  <g id="Calque_1-2" data-name="Calque 1">
    <g>
      <path class="cls-5" d="M170.08,94.41v-18.75s-11.71,0-11.71,0c-.87-6.71-2.61-13.14-5.15-19.16l10.15-5.86-9.38-16.24-10.2,5.89c-4.03-5.27-8.74-9.97-14.01-13.99l5.9-10.22-16.24-9.38-5.89,10.2c-6.01-2.52-12.44-4.25-19.14-5.11V0h-18.75v11.77c-6.71.84-13.14,2.56-19.17,5.07l-5.85-10.14-16.24,9.38,5.84,10.12c-5.3,4.02-10.04,8.74-14.09,14.02l-10.07-5.82-9.38,16.24,10,5.77c-2.56,6.05-4.31,12.51-5.18,19.25H0v18.75h11.48c.84,6.77,2.57,13.25,5.11,19.32l-9.88,5.7,9.38,16.24,9.87-5.7c4.05,5.33,8.81,10.1,14.14,14.16l-5.69,9.86,16.24,9.38,5.68-9.83c6.08,2.55,12.57,4.3,19.35,5.14v11.39h18.75v-11.42c6.76-.86,13.25-2.62,19.31-5.18l5.71,9.89,16.24-9.38-5.75-9.96c5.3-4.06,10.04-8.81,14.07-14.14l10,5.77,9.38-16.24-10.03-5.79c2.52-6.05,4.24-12.5,5.07-19.23h11.67Z"/>
      <g class="cls-6">
        <path class="cls-3" d="M88.1,61.81h6.55v29.88h-6.55v-2.05c-1.39,1.75-3.28,2.63-5.65,2.63-1.34,0-2.58-.25-3.71-.76-1.13-.5-2.11-1.2-2.95-2.09-.84-.89-1.49-1.93-1.96-3.13-.47-1.2-.7-2.5-.7-3.89,0-1.32.22-2.57.67-3.76.44-1.19,1.07-2.23,1.89-3.11.82-.89,1.79-1.59,2.93-2.11,1.14-.52,2.39-.77,3.76-.77,2.3,0,4.21.8,5.72,2.41v-13.25ZM79.89,82.4c0,.6.11,1.16.32,1.67.22.52.51.97.88,1.35.37.38.82.68,1.33.9.52.22,1.07.32,1.67.32s1.12-.11,1.64-.32c.52-.22.96-.52,1.33-.9.37-.38.67-.83.9-1.33.23-.5.34-1.04.34-1.62s-.11-1.12-.34-1.64c-.23-.52-.53-.97-.9-1.35-.37-.38-.82-.68-1.33-.9-.52-.22-1.06-.32-1.64-.32s-1.12.11-1.64.32c-.52.22-.96.52-1.33.9-.37.38-.67.82-.9,1.31-.23.49-.34,1.03-.34,1.6Z"/>
        <path class="cls-3" d="M24.65,109.26c-2.27-4.87-4.17-12.24-4.74-20.42h4.88v-9.75h-4.87c.55-7.5,2.3-14.12,4.3-18.77l10.47,7.12,5.48-8.06-18.96-12.89-2.74,4.01c-5.15,7.54-8.48,20.68-8.48,33.46,0,15.05,4.32,30.12,10.51,36.65l3.65,3.85,15.32-17.18-7.28-6.49-7.54,8.46Z"/>
        <path class="cls-3" d="M149.21,47.71l-2.51-3.22-18.91,10.02v54.39l24.68,11.25,1.75-5.08c.23-.68,5.74-16.92,5.74-34.71s-10.31-32.08-10.74-32.64ZM146.5,106.71l-8.97-4.09v-42.25l6.17-3.27c2.58,4.48,6.5,12.99,6.5,23.25s-2.16,20.5-3.7,26.36Z"/>
      </g>
    </g>
    <g>
      <path class="cls-1" d="M71.05,86.69c-.5-1.44-.79-2.98-.79-4.59,0-2.17.51-4.22,1.39-6.06h-13.36l55.25-59.13c-6.01-2.52-12.43-4.25-19.12-5.11L29.53,86.92l41.52-.23Z"/>
      <path class="cls-4" d="M98.31,82.09c0,1.56-.26,3.05-.73,4.45l7.09-.04-33.16,66.56,52.71-68.02v-9.01h-27.3c.88,1.84,1.39,3.89,1.39,6.06Z"/>
    </g>
  </g>
</svg>